<svg width="20" height="20" viewBox="0 0 20 20" fill="none" xmlns="http://www.w3.org/2000/svg">
<path d="M18.8 10.2083C18.8 9.55831 18.7417 8.93331 18.6333 8.33331H10V11.8791H14.9333C14.7208 13.025 14.075 13.9958 13.1042 14.6458V16.9458H16.0667C17.8 15.35 18.8 13 18.8 10.2083Z" fill="#4285F4"/>
<path d="M10 19.1666C12.475 19.1666 14.55 18.3458 16.0667 16.9458L13.1042 14.6458C12.2833 15.1958 11.2333 15.5208 10 15.5208C7.61252 15.5208 5.59168 13.9083 4.87085 11.7416H1.80835V14.1166C3.31668 17.1125 6.41668 19.1666 10 19.1666Z" fill="#34A853"/>
<path d="M4.87075 11.7416C4.68742 11.1916 4.58325 10.6041 4.58325 9.99997C4.58325 9.3958 4.68742 8.8083 4.87075 8.2583V5.8833H1.80825C1.18742 7.1208 0.833252 8.5208 0.833252 9.99997C0.833252 11.4791 1.18742 12.8791 1.80825 14.1166L4.87075 11.7416Z" fill="#FBBC05"/>
<path d="M10 4.47915C11.3458 4.47915 12.5542 4.94165 13.5042 5.84998L16.1333 3.22081C14.5458 1.74165 12.4708 0.833313 10 0.833313C6.41668 0.833313 3.31668 2.88748 1.80835 5.88331L4.87085 8.25831C5.59168 6.09165 7.61251 4.47915 10 4.47915Z" fill="#EA4335"/>
</svg>
