<svg width="21" height="20" viewBox="0 0 21 20" fill="none" xmlns="http://www.w3.org/2000/svg">
<path d="M4.66667 17.5H16.3333C17.2538 17.5 18 16.7538 18 15.8333V4.16667C18 3.24619 17.2538 2.5 16.3333 2.5H4.66667C3.74619 2.5 3 3.24619 3 4.16667V15.8333C3 16.7538 3.74619 17.5 4.66667 17.5ZM4.66667 17.5L13.8333 8.33333L18 12.5M8.83333 7.08333C8.83333 7.77369 8.27369 8.33333 7.58333 8.33333C6.89298 8.33333 6.33333 7.77369 6.33333 7.08333C6.33333 6.39298 6.89298 5.83333 7.58333 5.83333C8.27369 5.83333 8.83333 6.39298 8.83333 7.08333Z" stroke="#1652F0" stroke-width="2" stroke-linecap="round" stroke-linejoin="round"/>
</svg>
