<svg width="21" height="20" viewBox="0 0 21 20" fill="none" xmlns="http://www.w3.org/2000/svg">
<g clip-path="url(#clip0_4622_44137)">
<path d="M16.3337 8.33337V10C16.3337 11.5471 15.7191 13.0309 14.6251 14.1248C13.5312 15.2188 12.0474 15.8334 10.5003 15.8334M10.5003 15.8334C8.95323 15.8334 7.4695 15.2188 6.37554 14.1248C5.28157 13.0309 4.66699 11.5471 4.66699 10V8.33337M10.5003 15.8334V19.1667M7.16699 19.1667H13.8337M10.5003 0.833374C9.83728 0.833374 9.2014 1.09677 8.73256 1.56561C8.26372 2.03445 8.00033 2.67033 8.00033 3.33337V10C8.00033 10.6631 8.26372 11.299 8.73256 11.7678C9.2014 12.2366 9.83728 12.5 10.5003 12.5C11.1634 12.5 11.7993 12.2366 12.2681 11.7678C12.7369 11.299 13.0003 10.6631 13.0003 10V3.33337C13.0003 2.67033 12.7369 2.03445 12.2681 1.56561C11.7993 1.09677 11.1634 0.833374 10.5003 0.833374Z" stroke="#1652F0" stroke-width="2" stroke-linecap="round" stroke-linejoin="round"/>
</g>
<defs>
<clipPath id="clip0_4622_44137">
<rect width="20" height="20" fill="white" transform="translate(0.5)"/>
</clipPath>
</defs>
</svg>
