<svg width="21" height="20" viewBox="0 0 21 20" fill="none" xmlns="http://www.w3.org/2000/svg">
<path d="M18.3666 9.20835L10.7082 16.8667C9.77005 17.8049 8.49757 18.332 7.17075 18.332C5.84393 18.332 4.57145 17.8049 3.63325 16.8667C2.69505 15.9285 2.16797 14.656 2.16797 13.3292C2.16797 12.0024 2.69505 10.7299 3.63325 9.79168L11.2916 2.13335C11.9171 1.50788 12.7654 1.15649 13.6499 1.15649C14.5345 1.15649 15.3828 1.50788 16.0082 2.13335C16.6337 2.75882 16.9851 3.60713 16.9851 4.49168C16.9851 5.37623 16.6337 6.22455 16.0082 6.85002L8.34158 14.5083C8.02885 14.8211 7.60469 14.9968 7.16242 14.9968C6.72014 14.9968 6.29598 14.8211 5.98325 14.5083C5.67051 14.1956 5.49482 13.7715 5.49482 13.3292C5.49482 12.8869 5.67051 12.4627 5.98325 12.15L13.0582 5.08335" stroke="#1652F0" stroke-width="2" stroke-linecap="round" stroke-linejoin="round"/>
</svg>
