<svg xmlns="http://www.w3.org/2000/svg" width="169.446" height="29.396" viewBox="0 0 169.446 29.396"><defs><style>.a{fill:#fff;}</style></defs><path class="a" d="M7.982-30.435v13.262q0,3.23,2.321,3.23a2.315,2.315,0,0,0,1.68-.674,2.2,2.2,0,0,0,.69-1.631,2.3,2.3,0,0,0-.649-1.664,2.124,2.124,0,0,0-1.591-.674A2.825,2.825,0,0,0,8.908-18v-6.688q1.071-.1,1.623-.1A7.962,7.962,0,0,1,16.4-22.319a8.139,8.139,0,0,1,2.443,5.941,8.06,8.06,0,0,1-2.484,5.99,8.382,8.382,0,0,1-6.1,2.435,8.4,8.4,0,0,1-3.547-.8,7.97,7.97,0,0,1-2.849-2.143,9.142,9.142,0,0,1-1.948-6.055V-30.435Zm19.592,0V-8.278H21.5V-30.435ZM38.807-24.8a8.021,8.021,0,0,1,5.9,2.475,8.12,8.12,0,0,1,2.459,5.933,8.1,8.1,0,0,1-2.492,5.973,8.236,8.236,0,0,1-6.014,2.467,8.249,8.249,0,0,1-6.022-2.475,8.091,8.091,0,0,1-2.5-5.965,8.008,8.008,0,0,1,2.5-5.982A8.512,8.512,0,0,1,38.807-24.8Zm-.162,5.99a2.215,2.215,0,0,0-1.656.706,2.4,2.4,0,0,0-.682,1.729A2.387,2.387,0,0,0,37-14.657a2.211,2.211,0,0,0,1.648.714,2.229,2.229,0,0,0,1.664-.714A2.387,2.387,0,0,0,41-16.378a2.4,2.4,0,0,0-.682-1.729A2.234,2.234,0,0,0,38.645-18.813ZM57.377-24.8a8.021,8.021,0,0,1,5.9,2.475,8.12,8.12,0,0,1,2.459,5.933,8.1,8.1,0,0,1-2.492,5.973A8.236,8.236,0,0,1,57.23-7.953a8.249,8.249,0,0,1-6.022-2.475,8.091,8.091,0,0,1-2.5-5.965,8.008,8.008,0,0,1,2.5-5.982A8.512,8.512,0,0,1,57.377-24.8Zm-.162,5.99a2.215,2.215,0,0,0-1.656.706,2.4,2.4,0,0,0-.682,1.729,2.387,2.387,0,0,0,.69,1.721,2.211,2.211,0,0,0,1.648.714,2.229,2.229,0,0,0,1.664-.714,2.387,2.387,0,0,0,.69-1.721,2.4,2.4,0,0,0-.682-1.729A2.234,2.234,0,0,0,57.214-18.813ZM73.982-2.288H67.911V-15.793a9.142,9.142,0,0,1,1.948-6.055,7.97,7.97,0,0,1,2.849-2.143,8.4,8.4,0,0,1,3.547-.8,8.382,8.382,0,0,1,6.1,2.435,8.041,8.041,0,0,1,2.484,5.973,8.168,8.168,0,0,1-2.467,5.941,7.936,7.936,0,0,1-5.844,2.5q-.552,0-1.623-.114v-6.688a2.384,2.384,0,0,0,1.493.6,2.165,2.165,0,0,0,1.615-.7,2.3,2.3,0,0,0,.674-1.656,2.183,2.183,0,0,0-.7-1.631,2.323,2.323,0,0,0-1.672-.674q-2.337,0-2.337,3.23Zm22.4-22.335v6.493a2.388,2.388,0,0,0-1.152-.357q-1.656,0-1.656,2.532v7.678H87.5v-8.846a7.945,7.945,0,0,1,1.915-5.592A6.606,6.606,0,0,1,94.532-24.8,12.439,12.439,0,0,1,96.382-24.624Zm7.856.162V-8.278H98.168V-24.461Zm-3.019-7.223a2.972,2.972,0,0,1,2.135.868,2.759,2.759,0,0,1,.9,2.053,2.743,2.743,0,0,1-.852,2.078,3.037,3.037,0,0,1-2.183.812,3.037,3.037,0,0,1-2.183-.812,2.743,2.743,0,0,1-.852-2.078,2.759,2.759,0,0,1,.9-2.053A2.972,2.972,0,0,1,101.219-31.685ZM122.24-8.278h-6.071v-9.139q0-1.4-1.152-1.4-1.136,0-1.136,1.4v9.139H107.81V-17.3a7.379,7.379,0,0,1,2.094-5.332,6.857,6.857,0,0,1,5.129-2.167,6.88,6.88,0,0,1,5.568,2.516,8.292,8.292,0,0,1,1.639,5.47Zm8.944-22.157v6.2h2.727v6.412h-2.727a4.29,4.29,0,0,0,.609,2.662,2.8,2.8,0,0,0,2.232.73v6.379q-.471.016-.7.016a8.251,8.251,0,0,1-3.888-.958,7.87,7.87,0,0,1-2.93-2.6,9.858,9.858,0,0,1-1.4-5.551V-30.435ZM152.8-15.388h-9.2a4.46,4.46,0,0,1-.211-1.282,4.5,4.5,0,0,1,.292-1.591h3.084a1.908,1.908,0,0,0-2.029-1.8,2.2,2.2,0,0,0-1.85.966,4.055,4.055,0,0,0-.714,2.475,4.315,4.315,0,0,0,.69,2.548,2.122,2.122,0,0,0,1.81.974,2.417,2.417,0,0,0,1.753-.909l3.457,4.155a8.491,8.491,0,0,1-5.373,1.9,8.283,8.283,0,0,1-6.055-2.419A8.079,8.079,0,0,1,136-16.362a8.126,8.126,0,0,1,2.475-6.006,8.306,8.306,0,0,1,6.079-2.451,8.037,8.037,0,0,1,5.917,2.394,8.018,8.018,0,0,1,2.394,5.9Q152.87-16.167,152.8-15.388Zm12.482-15.047h6.071v13.489a9.142,9.142,0,0,1-1.948,6.055,7.97,7.97,0,0,1-2.849,2.143,8.4,8.4,0,0,1-3.547.8,8.382,8.382,0,0,1-6.1-2.435,8.041,8.041,0,0,1-2.484-5.973,8.149,8.149,0,0,1,2.467-5.925,7.936,7.936,0,0,1,5.844-2.5q.536,0,1.623.1V-18a2.421,2.421,0,0,0-1.493-.584,2.177,2.177,0,0,0-1.615.69,2.3,2.3,0,0,0-.674,1.664,2.165,2.165,0,0,0,.7,1.615,2.323,2.323,0,0,0,1.672.674q2.337,0,2.337-3.23Z" transform="translate(-1.912 31.685)"/></svg>