<svg xmlns="http://www.w3.org/2000/svg" width="32.001" height="29.001" viewBox="0 0 32.001 29.001"><defs><style>.a{fill:#00308f;}</style></defs><path class="a" d="M29.363,4.637a9,9,0,0,0-12.727,0L2.046,19.054a7,7,0,0,0,9.9,9.9l14.59-14.418a5,5,0,0,0-7.07-7.071L8.5,18.433A1,1,0,0,0,9.91,19.848L20.879,8.879a3,3,0,0,1,4.242,4.243L10.531,27.539a5,5,0,0,1-7.07-7.07L17.908,6.192a7,7,0,0,1,9.9,9.9L16.982,26.918A1,1,0,1,0,18.4,28.332L29.363,17.364A9,9,0,0,0,29.363,4.637Z" transform="translate(0.001 -2)"/></svg>