<svg xmlns="http://www.w3.org/2000/svg" width="22.756" height="32" viewBox="0 0 22.756 32"><defs><style>.a{fill:#00308f;}</style></defs><path class="a" d="M32.717,34.438a5.717,5.717,0,0,0,5.717-5.717v-10a5.717,5.717,0,0,0-11.434,0v10A5.717,5.717,0,0,0,32.717,34.438ZM29.858,18.717a2.858,2.858,0,0,1,5.717,0v10a2.858,2.858,0,0,1-5.717,0Z" transform="translate(-21.339 -13)"/><path class="a" d="M41.756,35H38.911a8.533,8.533,0,1,1-17.067,0H19a11.424,11.424,0,0,0,9.956,11.334v2.243H23.267v2.858H37.489V48.577H31.8V46.334A11.424,11.424,0,0,0,41.756,35Z" transform="translate(-19 -19.436)"/></svg>