<svg width="10" height="18" viewBox="0 0 10 18" fill="none" xmlns="http://www.w3.org/2000/svg">
<path fill-rule="evenodd" clip-rule="evenodd" d="M2 0C0.89543 0 0 0.89543 0 2C0 3.10457 0.89543 4 2 4C3.10457 4 4 3.10457 4 2C4 0.89543 3.10457 0 2 0ZM2 7C0.89543 7 0 7.89543 0 9C0 10.1046 0.89543 11 2 11C3.10457 11 4 10.1046 4 9C4 7.89543 3.10457 7 2 7ZM2 14C0.89543 14 0 14.8954 0 16C0 17.1046 0.89543 18 2 18C3.10457 18 4 17.1046 4 16C4 14.8954 3.10457 14 2 14ZM8 0C6.89543 0 6 0.89543 6 2C6 3.10457 6.89543 4 8 4C9.10457 4 10 3.10457 10 2C10 0.89543 9.10457 0 8 0ZM8 7C6.89543 7 6 7.89543 6 9C6 10.1046 6.89543 11 8 11C9.10457 11 10 10.1046 10 9C10 7.89543 9.10457 7 8 7ZM8 14C6.89543 14 6 14.8954 6 16C6 17.1046 6.89543 18 8 18C9.10457 18 10 17.1046 10 16C10 14.8954 9.10457 14 8 14Z" fill="#B9BCC6"/>
</svg>
