<svg xmlns="http://www.w3.org/2000/svg" width="24" height="16" viewBox="0 0 24 16"><defs><style>.a{fill:#00308f;}</style></defs><path class="a" d="M14,23a13.068,13.068,0,0,1-9.743-4.523A.912.912,0,0,1,4.3,17.221a.837.837,0,0,1,1.212.043A11.4,11.4,0,0,0,14,21.222,11.879,11.879,0,0,0,24.149,15,11.878,11.878,0,0,0,14,8.778c-4.233,0-8.119,2.49-10.4,6.66a.84.84,0,0,1-1.168.335.906.906,0,0,1-.323-1.212C4.7,9.827,9.143,7,14,7s9.3,2.827,11.889,7.562a.917.917,0,0,1,0,.876C23.3,20.172,18.858,23,14,23Z" transform="translate(-2 -7)"/><g transform="translate(7 3)"><path class="a" d="M16,21a5,5,0,1,1,5-5A5.006,5.006,0,0,1,16,21Zm0-8a3,3,0,1,0,3,3A3,3,0,0,0,16,13Z" transform="translate(-11 -11)"/></g></svg>