<svg xmlns="http://www.w3.org/2000/svg" width="118" height="118" viewBox="0 0 118 118"><defs><style>.a{fill:#ef5350;}</style></defs><path class="a" d="M109.27,166a59,59,0,1,1,59-59A59.065,59.065,0,0,1,109.27,166Zm0-109.438A50.438,50.438,0,1,0,159.708,107,50.495,50.495,0,0,0,109.27,56.562Z" transform="translate(-50.27 -48)"/><path class="a" d="M207.778,212.009a4.151,4.151,0,0,1-2.936-1.215L157.291,163.24a4.15,4.15,0,1,1,5.87-5.87l47.553,47.554a4.151,4.151,0,0,1-2.936,7.084Z" transform="translate(-125.003 -124.392)"/><path class="a" d="M160.23,212.008a4.151,4.151,0,0,1-2.933-7.084l47.551-47.554a4.151,4.151,0,1,1,5.872,5.869l-47.553,47.554A4.151,4.151,0,0,1,160.23,212.008Z" transform="translate(-125.008 -124.391)"/></svg>