<svg width="91" height="91" viewBox="0 0 91 91" fill="none" xmlns="http://www.w3.org/2000/svg">
<path d="M5.5 45.5C5.5 23.4086 23.4086 5.5 45.5 5.5C67.5914 5.5 85.5 23.4086 85.5 45.5C85.5 67.5914 67.5914 85.5 45.5 85.5C23.4086 85.5 5.5 67.5914 5.5 45.5Z" fill="#B9CBFB"/>
<path d="M45.5 37.5V53.5M37.5 45.5H53.5M31.5 27.5H59.5C61.7091 27.5 63.5 29.2909 63.5 31.5V59.5C63.5 61.7091 61.7091 63.5 59.5 63.5H31.5C29.2909 63.5 27.5 61.7091 27.5 59.5V31.5C27.5 29.2909 29.2909 27.5 31.5 27.5Z" stroke="#1652F0" stroke-width="4" stroke-linecap="round" stroke-linejoin="round"/>
<path d="M45.5 80.5C26.17 80.5 10.5 64.83 10.5 45.5H0.5C0.5 70.3528 20.6472 90.5 45.5 90.5V80.5ZM80.5 45.5C80.5 64.83 64.83 80.5 45.5 80.5V90.5C70.3528 90.5 90.5 70.3528 90.5 45.5H80.5ZM45.5 10.5C64.83 10.5 80.5 26.17 80.5 45.5H90.5C90.5 20.6472 70.3528 0.5 45.5 0.5V10.5ZM45.5 0.5C20.6472 0.5 0.5 20.6472 0.5 45.5H10.5C10.5 26.17 26.17 10.5 45.5 10.5V0.5Z" fill="#E8EEFD"/>
</svg>
