<svg width="108" height="100" viewBox="0 0 108 100" fill="none" xmlns="http://www.w3.org/2000/svg">
<path d="M63.6148 80.7697H44.3839C41.2032 80.7697 38.6147 78.1812 38.6147 75.0005V73.6793C38.6147 68.8716 36.6204 64.2735 33.1435 61.0677C26.8435 55.2619 23.23 47.0215 23.23 38.4618C23.23 21.4963 37.0339 7.69238 53.9994 7.69238C70.9649 7.69238 84.7688 21.4963 84.7688 38.4618C84.7688 47.0215 81.1553 55.2619 74.8553 61.0696C71.3783 64.2754 69.3841 68.8716 69.3841 73.6793V75.0005C69.3841 78.1812 66.7956 80.7697 63.6148 80.7697ZM53.9994 11.5386C39.1531 11.5386 27.0762 23.6156 27.0762 38.4618C27.0762 45.9522 30.2377 53.1599 35.7512 58.2407C40.0166 62.1735 42.4609 67.8023 42.4609 73.6793V75.0005C42.4609 76.062 43.3243 76.9235 44.3839 76.9235H63.6148C64.6764 76.9235 65.5379 76.062 65.5379 75.0005V73.6793C65.5379 67.7985 67.9822 62.1735 72.2476 58.2407C77.7591 53.1599 80.9226 45.9503 80.9226 38.4618C80.9226 23.6156 68.8456 11.5386 53.9994 11.5386Z" fill="#1652F0"/>
<path d="M59.7695 96.1545H48.2309C45.0501 96.1545 42.4617 93.566 42.4617 90.3852V78.8467H46.3078V90.3852C46.3078 91.4467 47.1713 92.3083 48.2309 92.3083H59.7695C60.831 92.3083 61.6926 91.4467 61.6926 90.3852V78.8467H65.5387V90.3852C65.5387 93.566 62.9503 96.1545 59.7695 96.1545Z" fill="#1652F0"/>
<path d="M53.9992 99.9997C50.8185 99.9997 48.23 97.4113 48.23 94.2305H52.0762C52.0762 95.292 52.9396 96.1536 53.9992 96.1536C55.0589 96.1536 55.9223 95.292 55.9223 94.2305H59.7685C59.7685 97.4113 57.18 99.9997 53.9992 99.9997Z" fill="#1652F0"/>
<path d="M77.0771 92.3083C73.8963 92.3083 71.3079 89.7199 71.3079 86.5391H75.154C75.154 87.6006 76.0156 88.4622 77.0771 88.4622C78.1387 88.4622 79.0002 87.6006 79.0002 86.5391H82.8464C82.8464 89.7199 80.2579 92.3083 77.0771 92.3083Z" fill="#163587"/>
<path d="M63.6154 88.4624H52.0769C51.0154 88.4624 50.1538 87.6028 50.1538 86.5393C50.1538 85.4758 51.0154 84.6162 52.0769 84.6162H63.6154C64.6789 84.6162 65.5385 85.4758 65.5385 86.5393C65.5385 87.6028 64.6789 88.4624 63.6154 88.4624Z" fill="#1652F0"/>
<path d="M82.8457 88.4613H71.3071C70.2437 88.4613 69.384 87.6017 69.384 86.5382C69.384 85.4748 70.2437 84.6152 71.3071 84.6152H82.8457C83.9072 84.6152 84.7687 83.7536 84.7687 82.6921V71.1536C84.7687 70.0901 85.6284 69.2305 86.6918 69.2305C87.7553 69.2305 88.6149 70.0901 88.6149 71.1536V82.6921C88.6149 85.8729 86.0264 88.4613 82.8457 88.4613Z" fill="#163587"/>
<path d="M86.6918 80.77H75.1533C74.0898 80.77 73.2302 79.9104 73.2302 78.8469C73.2302 77.7834 74.0898 76.9238 75.1533 76.9238H86.6918C87.7553 76.9238 88.6149 77.7834 88.6149 78.8469C88.6149 79.9104 87.7553 80.77 86.6918 80.77Z" fill="#163587"/>
<path d="M30.9231 92.3083C27.7423 92.3083 25.1538 89.7199 25.1538 86.5391H29C29 87.6006 29.8635 88.4622 30.9231 88.4622C31.9827 88.4622 32.8462 87.6006 32.8462 86.5391H36.6923C36.6923 89.7199 34.1039 92.3083 30.9231 92.3083Z" fill="#163587"/>
<path d="M36.6916 88.4613H25.1531C21.9723 88.4613 19.3838 85.8729 19.3838 82.6921V71.1536C19.3838 70.0901 20.2453 69.2305 21.3069 69.2305C22.3684 69.2305 23.23 70.0901 23.23 71.1536V82.6921C23.23 83.7536 24.0934 84.6152 25.1531 84.6152H36.6916C37.7531 84.6152 38.6147 85.4748 38.6147 86.5382C38.6147 87.6017 37.7531 88.4613 36.6916 88.4613Z" fill="#163587"/>
<path d="M32.8454 80.77H21.3069C20.2453 80.77 19.3838 79.9104 19.3838 78.8469C19.3838 77.7834 20.2453 76.9238 21.3069 76.9238H32.8454C33.907 76.9238 34.7685 77.7834 34.7685 78.8469C34.7685 79.9104 33.907 80.77 32.8454 80.77Z" fill="#163587"/>
<path d="M50.2182 59.9369C49.7259 59.9369 49.2336 59.7484 48.8586 59.3734L35.397 45.9118C34.645 45.1599 34.645 43.9445 35.397 43.1925L41.1662 37.4233C41.9181 36.6714 43.1335 36.6714 43.8855 37.4233L50.2182 43.756L64.2433 29.7309C64.9952 28.979 66.2106 28.979 66.9625 29.7309L72.7318 35.5002C73.4837 36.2521 73.4837 37.4675 72.7318 38.2194L51.5778 59.3734C51.2028 59.7484 50.7105 59.9369 50.2182 59.9369ZM39.4758 44.5522L50.2182 55.2945L68.6529 36.8598L65.6029 33.8098L51.5778 47.8349C50.8259 48.5868 49.6105 48.5868 48.8586 47.8349L42.5258 41.5022L39.4758 44.5522Z" fill="#1652F0"/>
<path d="M86.6925 73.0773H67.6481V69.2312H86.6925C87.754 69.2312 88.6156 68.3696 88.6156 67.3081V65.9869C88.6156 60.1061 91.0598 54.4811 95.3252 50.5484C100.837 45.4676 104 38.2579 104 30.7694C104 15.9232 91.9233 3.84618 77.077 3.84618C70.1982 3.84618 63.6404 6.46158 58.6096 11.2135L55.9692 8.41928C61.7173 2.9904 69.2116 0 77.077 0C94.0425 0 107.846 13.8039 107.846 30.7694C107.846 39.3291 104.233 47.5695 97.9329 53.3772C94.456 56.583 92.4617 61.1792 92.4617 65.9869V67.3081C92.4617 70.4889 89.8733 73.0773 86.6925 73.0773Z" fill="#163587"/>
<path d="M40.3538 73.0773H21.3075C18.1267 73.0773 15.5383 70.4889 15.5383 67.3081V65.9869C15.5383 61.1792 13.544 56.5811 10.0671 53.3753C3.76705 47.5695 0.153564 39.3291 0.153564 30.7694C0.153564 13.8039 13.9575 0 30.923 0C38.7865 0 46.2827 2.9904 52.0289 8.41928L49.3885 11.2135C44.3596 6.46158 37.8019 3.84618 30.923 3.84618C16.0767 3.84618 3.99974 15.9232 3.99974 30.7694C3.99974 38.2598 7.1613 45.4676 12.6748 50.5484C16.9402 54.4811 19.3844 60.11 19.3844 65.9869V67.3081C19.3844 68.3696 20.2479 69.2312 21.3075 69.2312H40.3538V73.0773Z" fill="#163587"/>
</svg>
