<svg width="108" height="100" viewBox="0 0 108 100" fill="none" xmlns="http://www.w3.org/2000/svg">
<path d="M46.3078 86.5381H42.4617V98.0765H46.3078V86.5381Z" fill="#163587"/>
<path d="M71.3082 100H36.6929C35.6313 100 34.7698 99.1389 34.7698 98.0774C34.7698 97.0158 35.6313 96.1543 36.6929 96.1543H71.3082C72.3698 96.1543 73.2313 97.0158 73.2313 98.0774C73.2313 99.1389 72.3698 100 71.3082 100Z" fill="#163587"/>
<path d="M65.538 86.5381H61.6919V98.0765H65.538V86.5381Z" fill="#163587"/>
<path d="M102.077 88.4617H5.92304C2.74227 88.4617 0.153809 85.8732 0.153809 82.6925V21.154C0.153809 17.9732 2.74227 15.3848 5.92304 15.3848H50.1538C51.2153 15.3848 52.0769 16.2463 52.0769 17.3078C52.0769 18.3694 51.2153 19.2309 50.1538 19.2309H5.92304C4.86342 19.2309 3.99996 20.0944 3.99996 21.154V82.6925C3.99996 83.7521 4.86342 84.6155 5.92304 84.6155H102.077C103.137 84.6155 104 83.7521 104 82.6925V21.154C104 20.0944 103.137 19.2309 102.077 19.2309H96.3077C95.2461 19.2309 94.3846 18.3694 94.3846 17.3078C94.3846 16.2463 95.2461 15.3848 96.3077 15.3848H102.077C105.258 15.3848 107.846 17.9732 107.846 21.154V82.6925C107.846 85.8732 105.258 88.4617 102.077 88.4617Z" fill="#163587"/>
<path d="M30.9225 53.8465C24.559 53.8465 19.384 48.6715 19.384 42.308C19.384 35.9445 24.559 30.7695 30.9225 30.7695C37.286 30.7695 42.461 35.9445 42.461 42.308C42.461 48.6715 37.286 53.8465 30.9225 53.8465ZM30.9225 34.6157C26.6802 34.6157 23.2302 38.0657 23.2302 42.308C23.2302 46.5503 26.6802 50.0003 30.9225 50.0003C35.1648 50.0003 38.6148 46.5503 38.6148 42.308C38.6148 38.0657 35.1648 34.6157 30.9225 34.6157Z" fill="#1652F0"/>
<path d="M48.2304 76.9234C47.1688 76.9234 46.3073 76.0618 46.3073 75.0003V64.8234C46.3073 62.4503 44.8842 60.3484 42.6804 59.4676L39.0765 58.0253L32.2804 64.8214C31.5284 65.5734 30.313 65.5734 29.5611 64.8214L22.765 58.0253L19.1611 59.4676C16.9611 60.3484 15.538 62.4503 15.538 64.8234V75.0003C15.538 76.0618 14.6765 76.9234 13.615 76.9234C12.5534 76.9234 11.6919 76.0618 11.6919 75.0003V64.8234C11.6919 60.8676 14.063 57.3638 17.7361 55.8945L22.5169 53.983C23.2304 53.6984 24.0457 53.8638 24.59 54.4099L30.9227 60.7426L37.2554 54.4099C37.7977 53.8657 38.6169 53.6984 39.3284 53.983L44.1092 55.8945C47.7823 57.3638 50.1534 60.8676 50.1534 64.8234V75.0003C50.1534 76.0618 49.2919 76.9234 48.2304 76.9234Z" fill="#1652F0"/>
<path d="M73.2313 53.8462H48.2313C47.4544 53.8462 46.7525 53.3769 46.4544 52.6596C46.1563 51.9423 46.3217 51.1135 46.8717 50.5635L52.8813 44.5538C48.6294 39.6596 46.3082 33.4692 46.3082 26.9231C46.3082 12.0769 58.3851 0 73.2313 0C88.0775 0 100.154 12.0769 100.154 26.9231C100.154 41.7692 88.0775 53.8462 73.2313 53.8462ZM52.8736 50H73.2313C85.9563 50 96.3082 39.6481 96.3082 26.9231C96.3082 14.1981 85.9563 3.84615 73.2313 3.84615C60.5063 3.84615 50.1544 14.1981 50.1544 26.9231C50.1544 33.0865 52.5544 38.8808 56.914 43.2404C57.6659 43.9923 57.6659 45.2077 56.914 45.9596L52.8736 50Z" fill="#1652F0"/>
<path d="M82.8457 23.0766H63.615C62.5534 23.0766 61.6919 22.2151 61.6919 21.1535C61.6919 20.092 62.5534 19.2305 63.615 19.2305H82.8457C83.9073 19.2305 84.7688 20.092 84.7688 21.1535C84.7688 22.2151 83.9073 23.0766 82.8457 23.0766Z" fill="#1652F0"/>
<path d="M82.8457 34.6157H63.615C62.5534 34.6157 61.6919 33.7541 61.6919 32.6926C61.6919 31.6311 62.5534 30.7695 63.615 30.7695H82.8457C83.9073 30.7695 84.7688 31.6311 84.7688 32.6926C84.7688 33.7541 83.9073 34.6157 82.8457 34.6157Z" fill="#1652F0"/>
<path d="M40.5388 76.923C39.4773 76.923 38.6157 76.0615 38.6157 74.9999V69.2307C38.6157 68.1692 39.4773 67.3076 40.5388 67.3076C41.6003 67.3076 42.4619 68.1692 42.4619 69.2307V74.9999C42.4619 76.0615 41.6003 76.923 40.5388 76.923Z" fill="#1652F0"/>
<path d="M21.3071 76.923C20.2456 76.923 19.384 76.0615 19.384 74.9999V69.2307C19.384 68.1692 20.2456 67.3076 21.3071 67.3076C22.3686 67.3076 23.2302 68.1692 23.2302 69.2307V74.9999C23.2302 76.0615 22.3686 76.923 21.3071 76.923Z" fill="#1652F0"/>
<path d="M105.923 76.9233H2.07689C1.01535 76.9233 0.153809 76.0618 0.153809 75.0002C0.153809 73.9387 1.01535 73.0771 2.07689 73.0771H105.923C106.985 73.0771 107.846 73.9387 107.846 75.0002C107.846 76.0618 106.985 76.9233 105.923 76.9233Z" fill="#163587"/>
</svg>
