<svg width="136" height="90" viewBox="0 0 136 90" fill="none" xmlns="http://www.w3.org/2000/svg">
<path d="M45.1139 85.499C42.9087 85.499 40.7014 84.6597 39.0228 82.9811C35.6633 79.6239 35.6633 74.1561 39.0228 70.7989L46.545 63.2767C49.9022 59.9195 55.37 59.9195 58.7272 63.2767C62.0866 66.6339 62.0866 72.1017 58.7272 75.4589L51.205 82.9811C49.5264 84.6597 47.319 85.499 45.1139 85.499ZM52.6361 65.2568C51.583 65.2568 50.5277 65.6573 49.7267 66.4584L42.2045 73.9806C40.6001 75.5849 40.6001 78.1951 42.2045 79.7994C43.8088 81.4038 46.419 81.4038 48.0233 79.7994L55.5455 72.2772C57.1498 70.6729 57.1498 68.0627 55.5455 66.4584C54.7422 65.6551 53.6869 65.2568 52.6361 65.2568Z" fill="#152141"/>
<path d="M36.1139 76.499C33.9087 76.499 31.7014 75.6597 30.0228 73.9811C26.6633 70.6239 26.6633 65.1561 30.0228 61.7989L37.545 54.2767C40.9022 50.9195 46.37 50.9195 49.7272 54.2767C53.0866 57.6339 53.0866 63.1017 49.7272 66.4589L42.205 73.9811C40.5264 75.6597 38.319 76.499 36.1139 76.499ZM43.6361 56.2568C42.583 56.2568 41.5277 56.6573 40.7267 57.4584L33.2045 64.9806C31.6001 66.5849 31.6001 69.1951 33.2045 70.7994C34.8088 72.4038 37.419 72.4038 39.0233 70.7994L46.5455 63.2772C48.1498 61.6729 48.1498 59.0627 46.5455 57.4584C45.7422 56.6551 44.6869 56.2568 43.6361 56.2568Z" fill="#152141"/>
<path d="M29.3639 65.2486C27.1587 65.2486 24.9514 64.4093 23.2728 62.7307C19.9133 59.3735 19.9133 53.9057 23.2728 50.5485L28.5448 45.2764C31.902 41.917 37.3699 41.917 40.7271 45.2764C44.0865 48.6359 44.0865 54.1015 40.7271 57.4587L35.455 62.7307C33.7764 64.4093 31.569 65.2486 29.3639 65.2486ZM34.6359 47.2543C33.5829 47.2543 32.5276 47.6548 31.7265 48.4581L26.4545 53.7302C24.8501 55.3345 24.8501 57.9447 26.4545 59.549C28.0588 61.1534 30.669 61.1534 32.2733 59.549L37.5454 54.277C39.1497 52.6726 39.1497 50.0625 37.5454 48.4581C36.7421 47.6548 35.6868 47.2543 34.6359 47.2543Z" fill="#152141"/>
<path d="M66.5103 13.6646C65.8285 13.5521 65.2254 13.4981 64.6607 13.4981L43.2506 13.5003C41.383 13.5003 39.4366 13.3316 37.3013 12.985L38.0213 8.54102C39.9159 8.84928 41.626 9.00004 43.2506 9.00004H64.6607C65.473 9.00004 66.319 9.0743 67.2438 9.22956L66.5103 13.6646Z" fill="#1652F0"/>
<path d="M90.8879 85.4991C88.6828 85.4991 86.4754 84.6598 84.7968 82.9812L73.1613 71.3435C72.2815 70.4637 72.2815 69.0416 73.1613 68.1618C74.0411 67.282 75.4632 67.282 76.343 68.1618L87.9785 79.7995C89.5828 81.4038 92.193 81.4038 93.7973 79.7995C95.4017 78.1952 95.4017 75.585 93.7973 73.9807C92.9175 73.1009 92.9175 71.6788 93.7973 70.799C94.6771 69.9192 96.0992 69.9192 96.979 70.799C100.338 74.1562 100.338 79.624 96.979 82.9812C95.3004 84.6598 93.093 85.4991 90.8879 85.4991Z" fill="#1652F0"/>
<path d="M99.8879 76.4991C97.6828 76.4991 95.4754 75.6598 93.7968 73.9812L82.1613 62.3435C81.2815 61.4637 81.2815 60.0416 82.1613 59.1618C83.0411 58.282 84.4632 58.282 85.343 59.1618L96.9785 70.7995C98.5828 72.4038 101.193 72.4038 102.797 70.7995C104.402 69.1952 104.402 66.585 102.797 64.9807L100.547 62.7305C99.6674 61.8507 99.6674 60.4286 100.547 59.5488C101.427 58.669 102.849 58.669 103.729 59.5488L105.979 61.799C109.338 65.1562 109.338 70.624 105.979 73.9812C104.3 75.6598 102.093 76.4991 99.8879 76.4991Z" fill="#1652F0"/>
<path d="M77.3865 89.9996C75.1813 89.9996 72.9739 89.1603 71.2953 87.4817L65.9963 82.1827C65.1165 81.3029 65.1165 79.8808 65.9963 79.001C66.8761 78.1212 68.2982 78.1212 69.178 79.001L74.477 84.3C76.0814 85.9044 78.6915 85.9044 80.2959 84.3C81.9002 82.6957 81.9002 80.0855 80.2959 78.4812C79.4161 77.6014 79.4161 76.1793 80.2959 75.2995C81.1757 74.4197 82.5978 74.4197 83.4776 75.2995C86.837 78.6567 86.837 84.1245 83.4776 87.4817C81.799 89.1603 79.5916 89.9996 77.3865 89.9996Z" fill="#1652F0"/>
<path d="M58.6156 89.9997C56.4105 89.9997 54.2031 89.1604 52.5245 87.4818C49.165 84.1246 49.165 78.6568 52.5245 75.2996L55.5464 72.2777C58.9036 68.9205 64.3714 68.9205 67.7286 72.2777C71.0881 75.6349 71.0881 81.1027 67.7286 84.4599L64.7067 87.4818C63.0281 89.1604 60.8207 89.9997 58.6156 89.9997ZM61.6375 74.2578C60.5845 74.2578 59.5291 74.6583 58.7281 75.4594L55.7062 78.4813C54.1018 80.0856 54.1018 82.6958 55.7062 84.3001C57.3105 85.9045 59.9207 85.9045 61.525 84.3001L64.5469 81.2782C66.1513 79.6739 66.1513 77.0637 64.5469 75.4594C63.7436 74.6561 62.6883 74.2578 61.6375 74.2578Z" fill="#152141"/>
<path d="M106.631 65.2525C104.354 65.2525 102.176 64.3569 100.547 62.7301L91.1613 53.3425C90.2815 52.4627 90.2815 51.0384 91.1613 50.1608C92.0411 49.281 93.4632 49.281 94.343 50.1608L103.728 59.5484C104.601 60.4192 105.792 60.8557 107.034 60.732C108.278 60.6127 109.358 59.9624 110.08 58.9004C111.149 57.3253 110.848 55.0279 109.381 53.5608C108.501 52.681 108.501 51.2566 109.381 50.3768C110.26 49.4993 111.683 49.497 112.562 50.3791C115.578 53.3943 116.1 58.0408 113.804 61.425C112.342 63.5874 110.026 64.969 107.461 65.2142C107.182 65.239 106.906 65.2525 106.631 65.2525Z" fill="#1652F0"/>
<path d="M122.004 54.0022C121.815 54.0022 121.626 53.9774 121.44 53.9302C120.855 53.7794 120.357 53.4014 120.056 52.8771L95.3044 10.0053C94.6878 8.9365 95.0479 7.56842 96.1099 6.94288L107.361 0.311737C107.876 0.00571911 108.492 -0.0775359 109.075 0.0732232C109.656 0.226232 110.151 0.602005 110.45 1.12179L135.202 43.8743C135.816 44.9387 135.465 46.3 134.412 46.93L123.161 53.6804C122.808 53.8919 122.409 54.0022 122.004 54.0022ZM100.315 9.6858L122.808 48.6424L130.197 44.2096L107.691 5.33854L100.315 9.6858Z" fill="#152141"/>
<path d="M13.9977 54.0022C13.5926 54.0022 13.1944 53.8919 12.8388 53.6804L1.58816 46.93C0.535096 46.2977 0.184075 44.9364 0.798362 43.8743L25.5498 1.12179C25.8514 0.602005 26.3464 0.226232 26.9247 0.0732232C27.5075 -0.0775359 28.1217 0.00571911 28.6393 0.311737L39.89 6.94288C40.9543 7.56842 41.3143 8.9365 40.6955 10.0053L15.944 52.8771C15.6425 53.3992 15.1452 53.7772 14.5602 53.9302C14.3757 53.9774 14.1867 54.0022 13.9977 54.0022ZM5.80266 44.2119L13.1921 48.6446L35.6845 9.68805L28.3085 5.33854L5.80266 44.2119Z" fill="#1652F0"/>
<path d="M110.971 54.2207C110.389 54.2207 109.813 53.9934 109.381 53.5614L88.9133 33.0942C83.1822 27.3631 73.9814 27.1538 68.0006 32.4709V36.0014C68.0006 42.205 62.9535 47.252 56.7499 47.252H54.4998C52.0179 47.252 49.9995 45.2337 49.9995 42.7518V25.2952C49.9995 22.8921 50.9356 20.6307 52.6367 18.9318L56.7544 14.8118C60.7214 10.8449 64.6411 8.9975 69.0919 8.9975L92.7521 8.99975C94.3767 8.99975 96.0845 8.85124 97.9791 8.54297L98.6992 12.987C96.5661 13.3313 94.6197 13.5 92.7521 13.5H69.0919C65.8675 13.5 63.0435 14.8861 59.9361 17.9958L55.8184 22.1158C54.9813 22.9506 54.4998 24.1117 54.4998 25.2952V42.7518H56.7499C60.4716 42.7518 63.5003 39.7231 63.5003 36.0014V31.5011C63.5003 30.9048 63.7366 30.331 64.1596 29.9102C71.8731 22.2103 84.3996 22.2148 92.095 29.9125L111.401 49.2187L118.543 45.5419L120.604 49.5427L112.002 53.9709C111.673 54.1397 111.322 54.2207 110.971 54.2207Z" fill="#152141"/>
<path d="M17.4546 45.5428L15.3953 49.5439L23.9978 53.9715L26.0571 49.9703L17.4546 45.5428Z" fill="#1652F0"/>
</svg>
