<svg xmlns="http://www.w3.org/2000/svg" width="32" height="24.451" viewBox="0 0 32 24.451"><defs><style>.a{fill:#00308f;}</style></defs><path class="a" d="M-240.706-193.749h-26.388a2.823,2.823,0,0,1-2.806-2.806v-18.839a2.823,2.823,0,0,1,2.806-2.806h26.388a2.823,2.823,0,0,1,2.806,2.806v18.839a2.823,2.823,0,0,1-2.806,2.806ZM-267.161-216.4a.913.913,0,0,0-.935.935v18.839a.913.913,0,0,0,.935.935h26.388a.913.913,0,0,0,.935-.935v-18.839a.913.913,0,0,0-.935-.935Z" transform="translate(269.9 218.2)"/><path class="a" d="M-240.654-205.007a3.735,3.735,0,0,1-3.746-3.746,3.78,3.78,0,0,1,3.746-3.746,3.78,3.78,0,0,1,3.746,3.746,3.78,3.78,0,0,1-3.746,3.746Zm0-5.79a1.977,1.977,0,0,0-1.975,1.975,1.977,1.977,0,0,0,1.975,1.975,1.977,1.977,0,0,0,1.975-1.975,1.977,1.977,0,0,0-1.975-1.975Z" transform="translate(261.336 216.276)"/><path class="a" d="M-243.548-190.167l-15.734-14.781-8.991,8.31-1.226-1.294,10.217-9.468,16.96,15.939-1.226,1.294" transform="translate(269.772 214.277)"/><path class="a" d="M-229.238-192.361l-5.245-4.223-4.359,3.61L-240-194.4l5.517-4.5,6.335,5.177-1.09,1.362" transform="translate(259.739 211.704)"/></svg>