<svg width="343" height="248" viewBox="0 0 343 248" fill="none" xmlns="http://www.w3.org/2000/svg">
<path d="M0 20C0 8.9543 8.9543 0 20 0H323C334.046 0 343 8.9543 343 20V248H0V20Z" fill="#F2F7FF"/>
<path d="M84.0849 224.622L90.6485 224.622L93.771 199.247L84.0837 199.247L84.0849 224.622Z" fill="#FFB7B7"/>
<path d="M82.4112 231L103.576 230.999V230.731C103.576 228.541 102.708 226.441 101.163 224.893C99.6178 223.345 97.5226 222.475 95.3379 222.475H95.3373L82.4108 222.475L82.4112 231Z" fill="#2F2E41"/>
<path d="M143.687 224.476L149.723 221.891L142.649 197.327L133.74 201.142L143.687 224.476Z" fill="#FFB7B7"/>
<path d="M144.647 230.999L164.109 222.666L164.004 222.419C163.146 220.405 161.525 218.816 159.497 218C157.47 217.185 155.202 217.21 153.193 218.07L153.192 218.07L141.305 223.16L144.647 230.999Z" fill="#2F2E41"/>
<path d="M115.99 108.612L116.464 116.321L102.59 117.809L88.0725 119.366L92.3454 107.66L115.99 108.612Z" fill="#FFB7B7"/>
<path d="M116.708 111.469L122.291 78.76L112.949 75.6914L110.205 71.9199L96.8523 72.7119L94.892 77.1129L87.772 80.4848L88.8662 100.851L90.7864 110.324L91.0231 110.201C100.649 105.206 116.32 111.315 116.477 111.377L116.708 111.469Z" fill="#2F2E41"/>
<path d="M120.293 106.328L129.796 102.517L129.755 102.348C129.715 102.177 125.67 85.2382 125.133 82.5161C124.574 79.6802 122.53 78.8962 122.443 78.8643L122.38 78.8408L118.619 79.988L116.968 92.9943L120.293 106.328Z" fill="#2F2E41"/>
<path d="M138.798 220.017L151.447 217.416L131.23 161.504L124.311 142.433C124.311 142.433 119.922 127.142 117.939 121.225L116.743 113.285L88.417 116.428C88.417 116.428 80.5057 128.072 82.9091 147.052L81.822 218.391L94.4714 219.042L105.066 147.093L123.662 186.535C123.662 186.535 129.523 203.366 133.717 207.014L138.798 220.017Z" fill="#2F2E41"/>
<path d="M99.7762 119.075C99.5534 119.07 99.3306 119.082 99.1098 119.112L85.8952 104.108L87.4324 99.4964L80.7917 96.2617L77.2789 104.16C76.9951 104.798 76.9255 105.512 77.0805 106.193C77.2355 106.874 77.6068 107.486 78.1386 107.938L95.4712 122.657C95.339 123.507 95.4682 124.377 95.8415 125.152C96.2148 125.927 96.8145 126.569 97.5609 126.994C98.3074 127.418 99.1651 127.605 100.02 127.529C100.875 127.453 101.687 127.118 102.347 126.569C103.008 126.019 103.485 125.282 103.717 124.453C103.949 123.625 103.923 122.746 103.644 121.932C103.365 121.119 102.846 120.41 102.155 119.899C101.464 119.389 100.634 119.102 99.7761 119.075H99.7762Z" fill="#FFB7B7"/>
<path d="M86.9505 105.567L92.4629 92.5716L90.3129 83.5195L87.9964 80.5862C87.8267 80.5135 87.6439 80.4768 87.4593 80.4786C87.2748 80.4803 87.0926 80.5204 86.9243 80.5963C86.07 80.9409 85.3424 81.9971 84.7619 83.7356L79.5958 98.4838L86.9505 105.567Z" fill="#2F2E41"/>
<path d="M115.55 67.1049V57.3074C115.55 53.8254 114.17 50.4861 111.713 48.024C109.257 45.5619 105.925 44.1787 102.451 44.1787C98.9765 44.1787 95.6446 45.5619 93.1881 48.024C90.7315 50.4861 89.3514 53.8254 89.3514 57.3074V67.1049C89.3519 67.5725 89.5375 68.0207 89.8673 68.3513C90.1972 68.682 90.6445 68.8679 91.111 68.8685H113.79C114.257 68.8679 114.704 68.682 115.034 68.3513C115.364 68.0207 115.549 67.5725 115.55 67.1049Z" fill="#2F2E41"/>
<path d="M105.142 68.6406C99.8382 68.6406 95.5384 64.3311 95.5384 59.0151C95.5384 53.6991 99.8382 49.3896 105.142 49.3896C110.446 49.3896 114.746 53.6991 114.746 59.0151C114.746 64.3311 110.446 68.6406 105.142 68.6406Z" fill="#FFB7B7"/>
<path d="M118.649 58.0914C118.646 55.338 117.553 52.6982 115.611 50.7513C113.668 48.8043 111.034 47.7092 108.287 47.7061H106.332C103.584 47.7092 100.951 48.8043 99.0081 50.7513C97.0655 52.6983 95.9728 55.338 95.9697 58.0914V58.2874H100.102L101.511 54.3324L101.793 58.2874H103.928L104.639 56.2919L104.781 58.2874H118.649V58.0914Z" fill="#2F2E41"/>
<path d="M106.088 69.9701C106.282 69.7069 106.398 69.3941 106.422 69.0677C106.446 68.7414 106.378 68.4147 106.225 68.1255C104.154 64.1758 101.253 56.8778 105.103 52.3771L105.38 52.0537H94.2017V68.8741L104.356 70.6698C104.459 70.688 104.563 70.6972 104.668 70.6973C104.945 70.6973 105.218 70.6314 105.465 70.505C105.712 70.3786 105.925 70.1953 106.088 69.9701Z" fill="#2F2E41"/>
<path d="M149.16 103.115C149.005 103.275 148.862 103.447 148.734 103.63L128.771 103.14L126.442 98.875L119.561 101.556L122.951 109.508C123.225 110.151 123.7 110.687 124.303 111.036C124.907 111.385 125.608 111.529 126.3 111.445L148.854 108.714C149.386 109.389 150.11 109.886 150.931 110.138C151.751 110.39 152.629 110.386 153.447 110.127C154.265 109.867 154.985 109.363 155.511 108.683C156.037 108.003 156.344 107.179 156.391 106.32C156.438 105.461 156.223 104.608 155.774 103.875C155.326 103.141 154.665 102.562 153.88 102.214C153.095 101.866 152.223 101.766 151.38 101.927C150.537 102.088 149.762 102.502 149.16 103.115Z" fill="#FFB7B7"/>
<path d="M190.378 90.8487C185.106 90.8485 180.037 88.8162 176.219 85.1728C172.401 81.5293 170.127 76.5537 169.869 71.2764C169.853 71.6107 169.843 71.9469 169.843 72.2852C169.843 77.7437 172.007 82.9786 175.858 86.8384C179.709 90.6981 184.932 92.8664 190.378 92.8664C195.824 92.8664 201.048 90.6981 204.899 86.8384C208.75 82.9786 210.913 77.7437 210.913 72.2852C210.913 71.9469 210.904 71.6107 210.888 71.2764C210.629 76.5537 208.356 81.5293 204.538 85.1728C200.72 88.8162 195.65 90.8485 190.378 90.8487Z" fill="#00A3FF" fill-opacity="0.2"/>
<path d="M190.385 91.1528C186.28 91.1529 182.267 89.9328 178.853 87.647C175.44 85.3612 172.78 82.1123 171.209 78.3111C169.638 74.51 169.227 70.3273 170.028 66.292C170.829 62.2567 172.805 58.55 175.708 55.6408C178.611 52.7315 182.309 50.7502 186.335 49.9476C190.362 49.1449 194.535 49.5569 198.328 51.1314C202.12 52.7059 205.362 55.3722 207.643 58.7931C209.923 62.2141 211.141 66.236 211.141 70.3504C211.141 75.8675 208.954 81.1587 205.061 85.0599C201.169 88.9612 195.889 91.1528 190.385 91.1528ZM190.385 50.5385C186.475 50.5385 182.653 51.7004 179.403 53.8774C176.152 56.0543 173.618 59.1485 172.122 62.7687C170.626 66.3888 170.234 70.3723 170.997 74.2155C171.76 78.0586 173.643 81.5887 176.407 84.3595C179.172 87.1302 182.694 89.0171 186.528 89.7816C190.363 90.546 194.337 90.1537 197.949 88.6542C201.561 87.1547 204.649 84.6153 206.821 81.3573C208.993 78.0992 210.152 74.2688 210.152 70.3504C210.152 67.7486 209.641 65.1724 208.647 62.7687C207.654 60.365 206.198 58.1809 204.362 56.3412C202.527 54.5015 200.348 53.0422 197.949 52.0465C195.551 51.0509 192.981 50.5385 190.385 50.5385Z" fill="#3F3D56"/>
<path d="M202.245 64.6526L204.716 64.1574C204.716 64.1574 202.641 66.4853 202.245 66.6338C202.208 67.1284 202.208 67.6251 202.245 68.1197C197.501 88.526 180.007 79.5116 180.007 79.5116C186.382 79.6602 186.925 77.0351 186.925 77.0351C183.219 76.4902 182.478 74.0633 182.478 74.0633C182.81 74.2391 183.196 74.2858 183.561 74.1944C183.925 74.103 184.244 73.88 184.455 73.568C180.452 72.5279 180.995 68.615 180.995 68.615C181.709 69.1313 182.542 69.4554 183.417 69.5561C182.972 69.0113 179.216 64.5041 181.489 62.1762C181.489 62.1762 184.257 67.1292 191.521 67.5749L192.016 67.4758C191.932 67.1191 191.898 66.7523 191.917 66.3862C191.917 65.0069 192.463 63.6841 193.437 62.7088C194.41 61.7335 195.729 61.1855 197.106 61.1855C200.565 61.1855 201.306 63.1667 201.306 63.1667L203.777 61.6809C203.728 61.6809 203.481 64.1573 202.245 64.6526Z" fill="#1652F0"/>
<path d="M244.057 44.1661C238.786 44.1659 233.716 42.1336 229.898 38.4901C226.08 34.8467 223.806 29.8711 223.548 24.5938C223.532 24.9281 223.522 25.2643 223.522 25.6026C223.522 31.0611 225.686 36.296 229.537 40.1557C233.388 44.0155 238.611 46.1838 244.057 46.1838C249.504 46.1838 254.727 44.0155 258.578 40.1557C262.429 36.296 264.592 31.0611 264.592 25.6026C264.592 25.2643 264.583 24.9281 264.567 24.5938C264.309 29.8711 262.035 34.8467 258.217 38.4901C254.399 42.1336 249.329 44.1659 244.057 44.1661Z" fill="#00A3FF" fill-opacity="0.2"/>
<path d="M244.244 44.605C240.139 44.605 236.126 43.385 232.713 41.0992C229.3 38.8133 226.639 35.5644 225.068 31.7633C223.497 27.9621 223.086 23.7794 223.887 19.7441C224.688 15.7089 226.665 12.0022 229.568 9.09292C232.47 6.18364 236.169 4.20239 240.195 3.39972C244.221 2.59705 248.394 3.00901 252.187 4.5835C255.98 6.158 259.221 8.82431 261.502 12.2453C263.783 15.6662 265 19.6882 265 23.8025C265 26.5343 264.463 29.2394 263.42 31.7633C262.377 34.2872 260.848 36.5804 258.921 38.5121C256.993 40.4438 254.705 41.9761 252.187 43.0215C249.669 44.0669 246.97 44.605 244.244 44.605ZM244.244 3.99063C240.334 3.99063 236.513 5.15258 233.262 7.32954C230.011 9.5065 227.478 12.6007 225.981 16.2208C224.485 19.841 224.094 23.8245 224.857 27.6676C225.619 31.5108 227.502 35.0409 230.266 37.8117C233.031 40.5824 236.553 42.4693 240.388 43.2338C244.222 43.9982 248.197 43.6059 251.809 42.1063C255.421 40.6068 258.508 38.0675 260.68 34.8094C262.852 31.5514 264.012 27.721 264.012 23.8025C264.012 18.5481 261.929 13.5088 258.222 9.79339C254.515 6.07793 249.487 3.99061 244.244 3.99061V3.99063Z" fill="#3F3D56"/>
<path d="M249.897 13.5114C251.28 13.5156 252.604 14.0679 253.582 15.0477C254.56 16.0276 255.111 17.3553 255.115 18.741V29.1991C255.111 30.5848 254.56 31.9126 253.582 32.8924C252.604 33.8723 251.28 34.4246 249.897 34.4287H239.462C238.08 34.4246 236.755 33.8723 235.777 32.8924C234.8 31.9126 234.249 30.5848 234.245 29.1991V18.741C234.249 17.3553 234.8 16.0276 235.777 15.0477C236.755 14.0679 238.08 13.5156 239.462 13.5114H249.897ZM249.897 11.4199H239.462C237.527 11.4256 235.672 12.1987 234.303 13.5705C232.935 14.9422 232.163 16.8011 232.158 18.741V29.1991C232.163 31.1391 232.935 32.9979 234.303 34.3697C235.672 35.7414 237.527 36.5146 239.462 36.5202H249.897C251.833 36.5146 253.687 35.7414 255.056 34.3697C256.425 32.9979 257.196 31.1391 257.202 29.1991V18.741C257.196 16.8011 256.425 14.9422 255.056 13.5705C253.687 12.1987 251.833 11.4256 249.897 11.4199Z" fill="#1652F0"/>
<path d="M251.462 18.7412C251.048 18.7403 250.652 18.5747 250.36 18.2809C250.067 17.987 249.903 17.589 249.904 17.1741C249.904 16.7592 250.069 16.3615 250.362 16.0683C250.655 15.775 251.052 15.6104 251.466 15.6104C251.88 15.6104 252.277 15.775 252.57 16.0683C252.862 16.3615 253.027 16.7592 253.028 17.1741C253.028 17.589 252.864 17.987 252.572 18.2809C252.28 18.5747 251.883 18.7403 251.469 18.7412C251.467 18.7412 251.465 18.7412 251.462 18.7412Z" fill="#1652F0"/>
<path d="M244.68 19.7868C245.506 19.7868 246.313 20.0322 246.999 20.4919C247.685 20.9516 248.22 21.605 248.536 22.3694C248.852 23.1339 248.935 23.975 248.774 24.7866C248.613 25.5981 248.215 26.3435 247.632 26.9286C247.048 27.5137 246.304 27.9121 245.494 28.0736C244.685 28.235 243.845 28.1521 243.083 27.8355C242.32 27.5188 241.668 26.9826 241.209 26.2946C240.751 25.6067 240.506 24.7978 240.506 23.9704C240.506 23.421 240.614 22.877 240.824 22.3694C241.033 21.8618 241.341 21.4006 241.728 21.0121C242.116 20.6237 242.576 20.3155 243.083 20.1053C243.589 19.895 244.132 19.7868 244.68 19.7868ZM244.68 17.6953C243.442 17.6953 242.231 18.0633 241.202 18.7528C240.172 19.4424 239.369 20.4224 238.896 21.569C238.422 22.7156 238.298 23.9773 238.539 25.1946C238.781 26.4118 239.377 27.5299 240.253 28.4075C241.128 29.2851 242.244 29.8827 243.458 30.1249C244.673 30.367 245.932 30.2427 247.076 29.7678C248.22 29.2928 249.198 28.4886 249.886 27.4566C250.574 26.4247 250.941 25.2115 250.941 23.9704C250.941 22.3062 250.281 20.7101 249.107 19.5333C247.933 18.3565 246.34 17.6953 244.68 17.6953V17.6953Z" fill="#1652F0"/>
<path d="M244.115 157.098C238.843 157.098 233.773 155.065 229.955 151.422C226.137 147.778 223.864 142.803 223.605 137.525C223.59 137.86 223.58 138.196 223.58 138.534C223.58 143.993 225.744 149.228 229.595 153.087C233.446 156.947 238.669 159.115 244.115 159.115C249.561 159.115 254.784 156.947 258.635 153.087C262.487 149.228 264.65 143.993 264.65 138.534C264.65 138.196 264.641 137.86 264.625 137.525C264.366 142.803 262.093 147.778 258.275 151.422C254.457 155.065 249.387 157.098 244.115 157.098Z" fill="#00A3FF" fill-opacity="0.2"/>
<path d="M244.082 157.268C239.977 157.268 235.964 156.048 232.551 153.762C229.137 151.476 226.477 148.228 224.906 144.426C223.335 140.625 222.924 136.443 223.725 132.407C224.526 128.372 226.503 124.665 229.405 121.756C232.308 118.847 236.006 116.865 240.033 116.063C244.059 115.26 248.232 115.672 252.025 117.247C255.817 118.821 259.059 121.487 261.34 124.908C263.62 128.329 264.838 132.351 264.838 136.466C264.838 141.983 262.651 147.274 258.759 151.175C254.866 155.076 249.587 157.268 244.082 157.268ZM244.082 116.654C240.172 116.654 236.351 117.816 233.1 119.993C229.849 122.17 227.315 125.264 225.819 128.884C224.323 132.504 223.932 136.488 224.694 140.331C225.457 144.174 227.34 147.704 230.104 150.475C232.869 153.245 236.391 155.132 240.226 155.897C244.06 156.661 248.035 156.269 251.647 154.769C255.259 153.27 258.346 150.731 260.518 147.472C262.69 144.214 263.849 140.384 263.849 136.466C263.849 133.864 263.338 131.288 262.345 128.884C261.351 126.48 259.895 124.296 258.06 122.456C256.224 120.617 254.045 119.157 251.647 118.162C249.248 117.166 246.678 116.654 244.082 116.654Z" fill="#3F3D56"/>
<path fill-rule="evenodd" clip-rule="evenodd" d="M257.651 136.548C257.65 133.949 256.907 131.405 255.508 129.216C254.11 127.028 252.115 125.287 249.76 124.199C247.406 123.112 244.789 122.723 242.221 123.08C239.652 123.436 237.24 124.523 235.268 126.211C233.297 127.899 231.849 130.118 231.097 132.605C230.345 135.092 230.319 137.743 231.024 140.244C231.728 142.745 233.133 144.991 235.071 146.717C237.01 148.443 239.401 149.576 241.962 149.982V140.48H238.516V136.548H241.962V133.551C241.962 130.143 243.988 128.26 247.087 128.26C248.105 128.274 249.12 128.363 250.125 128.525V131.872H248.413C246.729 131.872 246.202 132.92 246.202 133.997V136.548H249.964L249.364 140.48H246.202V149.983C249.393 149.477 252.3 147.845 254.399 145.382C256.498 142.919 257.651 139.787 257.651 136.548L257.651 136.548Z" fill="#1652F0"/>
<path d="M186.032 188.835C180.76 188.835 175.69 186.803 171.872 183.159C168.054 179.516 165.78 174.54 165.522 169.263C165.506 169.597 165.497 169.933 165.497 170.272C165.497 175.73 167.66 180.965 171.511 184.825C175.362 188.684 180.585 190.853 186.032 190.853C191.478 190.853 196.701 188.684 200.552 184.825C204.403 180.965 206.567 175.73 206.567 170.272C206.567 169.933 206.557 169.597 206.541 169.263C206.283 174.54 204.009 179.516 200.191 183.159C196.373 186.803 191.303 188.835 186.032 188.835Z" fill="#00A3FF" fill-opacity="0.2"/>
<path d="M185.998 189.005C181.893 189.005 177.88 187.785 174.467 185.5C171.054 183.214 168.394 179.965 166.823 176.164C165.252 172.362 164.841 168.18 165.642 164.145C166.442 160.109 168.419 156.403 171.322 153.493C174.225 150.584 177.923 148.603 181.949 147.8C185.975 146.997 190.149 147.409 193.941 148.984C197.734 150.558 200.976 153.225 203.256 156.646C205.537 160.067 206.754 164.089 206.754 168.203C206.754 173.72 204.568 179.011 200.675 182.912C196.783 186.814 191.503 189.005 185.998 189.005ZM185.998 148.391C182.089 148.391 178.267 149.553 175.016 151.73C171.766 153.907 169.232 157.001 167.736 160.621C166.24 164.241 165.848 168.225 166.611 172.068C167.374 175.911 169.256 179.441 172.021 182.212C174.785 184.983 178.308 186.87 182.142 187.634C185.977 188.399 189.951 188.006 193.563 186.507C197.175 185.007 200.262 182.468 202.435 179.21C204.607 175.952 205.766 172.121 205.766 168.203C205.766 165.601 205.255 163.025 204.261 160.621C203.268 158.218 201.812 156.033 199.976 154.194C198.141 152.354 195.961 150.895 193.563 149.899C191.165 148.903 188.594 148.391 185.998 148.391Z" fill="#3F3D56"/>
<g clip-path="url(#clip0_3246_55666)">
<path d="M197.859 154.689H174.455C173.917 154.689 173.402 154.903 173.021 155.284C172.641 155.665 172.428 156.181 172.428 156.72V180.165C172.428 180.703 172.641 181.22 173.021 181.601C173.402 181.981 173.917 182.195 174.455 182.195H197.859C198.396 182.195 198.912 181.981 199.292 181.601C199.672 181.22 199.886 180.703 199.886 180.165V156.72C199.886 156.181 199.672 155.665 199.292 155.284C198.912 154.903 198.396 154.689 197.859 154.689ZM180.612 178.121H176.483V164.985H180.612V178.121ZM178.545 163.165C178.076 163.162 177.619 163.021 177.231 162.758C176.843 162.495 176.542 162.124 176.364 161.689C176.187 161.255 176.142 160.778 176.235 160.318C176.328 159.859 176.555 159.437 176.888 159.106C177.22 158.776 177.642 158.551 178.102 158.461C178.561 158.37 179.037 158.418 179.469 158.599C179.902 158.779 180.271 159.084 180.531 159.474C180.79 159.865 180.929 160.323 180.928 160.792C180.933 161.106 180.874 161.418 180.755 161.709C180.637 162 180.461 162.264 180.239 162.485C180.017 162.707 179.752 162.881 179.461 162.998C179.17 163.114 178.858 163.171 178.545 163.165ZM195.828 178.132H191.702V170.956C191.702 168.84 190.804 168.186 189.644 168.186C188.42 168.186 187.219 169.111 187.219 171.01V178.132H183.091V164.995H187.06V166.815H187.114C187.512 166.007 188.908 164.626 191.038 164.626C193.341 164.626 195.83 165.996 195.83 170.007L195.828 178.132Z" fill="#1652F0"/>
</g>
<defs>
<clipPath id="clip0_3246_55666">
<rect x="172.428" y="154.689" width="27.4578" height="27.5058" rx="13.7289" fill="white"/>
</clipPath>
</defs>
</svg>
