<svg width="450" height="551" viewBox="0 0 450 551" fill="none" xmlns="http://www.w3.org/2000/svg">
<rect width="450" height="551" fill="#F2F7FF"/>
<path d="M60.4179 478.98L72.848 478.98L78.7615 431.009L60.4156 431.01L60.4179 478.98Z" fill="#FFB7B7"/>
<path d="M57.2474 491.036L97.3291 491.035V490.527C97.3288 486.388 95.685 482.418 92.7594 479.491C89.8337 476.564 85.8657 474.919 81.7282 474.919H81.7272L57.2467 474.92L57.2474 491.036Z" fill="#2F2E41"/>
<path d="M173.293 478.704L184.724 473.817L171.327 427.379L154.456 434.59L173.293 478.704Z" fill="#FFB7B7"/>
<path d="M175.11 491.035L211.969 475.281L211.77 474.815C210.144 471.008 207.074 468.003 203.234 466.461C199.394 464.919 195.1 464.966 191.295 466.592L191.294 466.593L168.782 476.215L175.11 491.035Z" fill="#2F2E41"/>
<path d="M120.839 259.661L121.738 274.234L95.4625 277.047L67.9692 279.991L76.0612 257.861L120.839 259.661Z" fill="#FFB7B7"/>
<path d="M122.199 265.062L132.773 203.226L115.081 197.425L109.884 190.295L84.597 191.792L80.8845 200.112L67.4006 206.487L69.4729 244.99L73.1094 262.899L73.5577 262.667C91.7869 253.222 121.464 264.772 121.762 264.889L122.199 265.062Z" fill="#2F2E41"/>
<path d="M128.99 255.343L146.986 248.139L146.909 247.818C146.832 247.495 139.172 215.472 138.155 210.326C137.096 204.965 133.225 203.483 133.061 203.422L132.941 203.378L125.819 205.547L122.691 230.135L128.99 255.343Z" fill="#2F2E41"/>
<path d="M164.034 470.272L187.99 465.356L149.702 359.653L136.598 323.6C136.598 323.6 128.287 294.692 124.532 283.505L122.266 268.495L68.6219 274.436C68.6219 274.436 53.6394 296.45 58.1909 332.332L56.1323 467.2L80.0878 468.429L100.153 332.408L135.369 406.974C135.369 406.974 146.469 438.793 154.411 445.69L164.034 470.272Z" fill="#2F2E41"/>
<path d="M90.1342 279.442C89.7124 279.432 89.2904 279.455 88.8722 279.512L63.8463 251.146L66.7574 242.428L54.1812 236.312L47.5285 251.245C46.9911 252.451 46.8592 253.8 47.1528 255.087C47.4464 256.375 48.1496 257.533 49.1567 258.386L81.9814 286.213C81.7311 287.82 81.9757 289.465 82.6826 290.93C83.3896 292.394 84.5254 293.609 85.939 294.411C87.3526 295.214 88.977 295.567 90.5962 295.424C92.2153 295.281 93.7524 294.647 95.0031 293.609C96.2538 292.57 97.1587 291.175 97.5975 289.609C98.0364 288.043 97.9883 286.38 97.4598 284.843C96.9312 283.305 95.9472 281.964 94.6386 281C93.33 280.035 91.7589 279.492 90.1342 279.442H90.1342Z" fill="#FFB7B7"/>
<path d="M65.844 253.906L76.2834 229.338L72.2118 212.225L67.8248 206.679C67.5034 206.542 67.1571 206.472 66.8076 206.476C66.4582 206.479 66.1132 206.555 65.7945 206.698C64.1765 207.35 62.7987 209.346 61.6992 212.633L51.9156 240.515L65.844 253.906Z" fill="#2F2E41"/>
<path d="M120.006 181.192V162.669C120.006 156.087 117.393 149.774 112.74 145.119C108.088 140.465 101.778 137.85 95.1989 137.85C88.6196 137.85 82.3097 140.465 77.6574 145.119C73.0051 149.774 70.3914 156.087 70.3914 162.669V181.192C70.3924 182.076 70.7438 182.923 71.3685 183.548C71.9933 184.173 72.8403 184.525 73.7238 184.526H116.674C117.557 184.525 118.404 184.173 119.029 183.548C119.654 182.923 120.005 182.076 120.006 181.192Z" fill="#2F2E41"/>
<path d="M100.296 184.094C90.2516 184.094 82.1085 175.947 82.1085 165.897C82.1085 155.847 90.2516 147.7 100.296 147.7C110.341 147.7 118.484 155.847 118.484 165.897C118.484 175.947 110.341 184.094 100.296 184.094Z" fill="#FFB7B7"/>
<path d="M125.875 164.151C125.869 158.946 123.8 153.955 120.121 150.275C116.442 146.594 111.454 144.523 106.251 144.518H102.548C97.3457 144.523 92.3577 146.594 88.6789 150.275C85 153.955 82.9307 158.946 82.9248 164.151V164.522H90.7496L93.4185 157.045L93.9522 164.522H97.9961L99.3427 160.749L99.6121 164.522H125.875V164.151Z" fill="#2F2E41"/>
<path d="M102.086 186.608C102.454 186.111 102.673 185.519 102.719 184.902C102.766 184.285 102.637 183.668 102.347 183.121C98.4236 175.654 92.9299 161.857 100.222 153.349L100.746 152.737H79.5764V184.536L98.8074 187.931C99.0021 187.966 99.1994 187.983 99.3972 187.983C99.9221 187.983 100.44 187.859 100.907 187.62C101.375 187.381 101.779 187.034 102.086 186.608Z" fill="#2F2E41"/>
<path d="M183.657 249.269C183.363 249.572 183.093 249.897 182.85 250.243L145.045 249.317L140.634 241.254L127.602 246.323L134.023 261.356C134.542 262.571 135.44 263.584 136.584 264.244C137.727 264.904 139.053 265.176 140.364 265.017L183.077 259.855C184.085 261.131 185.457 262.07 187.011 262.547C188.565 263.024 190.227 263.016 191.776 262.525C193.326 262.034 194.689 261.082 195.685 259.797C196.681 258.511 197.262 256.953 197.351 255.329C197.44 253.705 197.033 252.093 196.183 250.706C195.334 249.32 194.083 248.225 192.596 247.567C191.11 246.909 189.458 246.72 187.861 247.024C186.265 247.328 184.798 248.111 183.657 249.269Z" fill="#FFB7B7"/>
<path d="M261.717 226.079C251.733 226.078 242.131 222.236 234.901 215.348C227.67 208.46 223.365 199.054 222.875 189.077C222.845 189.709 222.827 190.345 222.827 190.984C222.827 201.304 226.924 211.2 234.218 218.497C241.511 225.794 251.402 229.893 261.717 229.893C272.031 229.893 281.922 225.794 289.216 218.497C296.509 211.2 300.606 201.304 300.606 190.984C300.606 190.345 300.588 189.709 300.558 189.077C300.069 199.054 295.763 208.46 288.532 215.348C281.302 222.236 271.7 226.078 261.717 226.079Z" fill="#00A3FF" fill-opacity="0.2"/>
<path d="M261.729 226.655C253.955 226.655 246.355 224.348 239.891 220.027C233.427 215.705 228.389 209.563 225.414 202.377C222.439 195.191 221.66 187.284 223.177 179.655C224.694 172.026 228.437 165.019 233.935 159.519C239.432 154.019 246.436 150.273 254.061 148.756C261.686 147.238 269.589 148.017 276.772 150.994C283.954 153.97 290.093 159.011 294.412 165.478C298.731 171.946 301.037 179.549 301.037 187.327C301.037 197.758 296.896 207.761 289.524 215.136C282.152 222.511 272.154 226.655 261.729 226.655ZM261.729 149.873C254.325 149.873 247.087 152.069 240.931 156.185C234.775 160.301 229.977 166.15 227.143 172.994C224.31 179.838 223.568 187.369 225.013 194.634C226.457 201.9 230.023 208.574 235.258 213.812C240.494 219.05 247.164 222.617 254.426 224.062C261.688 225.507 269.215 224.766 276.055 221.931C282.896 219.096 288.742 214.295 292.856 208.136C296.969 201.977 299.165 194.735 299.165 187.327C299.165 182.409 298.197 177.538 296.315 172.994C294.434 168.45 291.677 164.321 288.2 160.843C284.724 157.365 280.597 154.606 276.055 152.724C271.513 150.842 266.645 149.873 261.729 149.873Z" fill="#3F3D56"/>
<path d="M284.191 176.557L288.87 175.62C288.87 175.62 284.939 180.021 284.191 180.302C284.121 181.237 284.121 182.176 284.191 183.111C275.206 221.689 242.075 204.647 242.075 204.647C254.148 204.928 255.178 199.966 255.178 199.966C248.159 198.936 246.755 194.347 246.755 194.347C247.385 194.68 248.115 194.768 248.806 194.595C249.496 194.423 250.099 194.001 250.499 193.411C242.918 191.445 243.947 184.047 243.947 184.047C245.298 185.024 246.877 185.636 248.533 185.827C247.691 184.797 240.578 176.276 244.883 171.875C244.883 171.875 250.124 181.238 263.882 182.081L264.818 181.894C264.659 181.219 264.596 180.526 264.631 179.834C264.631 177.226 265.666 174.725 267.509 172.882C269.352 171.038 271.851 170.002 274.457 170.002C281.009 170.002 282.413 173.747 282.413 173.747L287.092 170.938C286.998 170.938 286.53 175.62 284.191 176.557Z" fill="#1652F0"/>
<path d="M363.376 137.824C353.392 137.824 343.791 133.982 336.56 127.094C329.33 120.206 325.024 110.799 324.534 100.822C324.504 101.454 324.486 102.09 324.486 102.73C324.486 113.049 328.584 122.946 335.877 130.242C343.17 137.539 353.062 141.639 363.376 141.639C373.69 141.639 383.582 137.539 390.875 130.242C398.168 122.946 402.265 113.049 402.265 102.73C402.265 102.09 402.247 101.454 402.217 100.822C401.728 110.799 397.422 120.206 390.191 127.094C382.961 133.982 373.36 137.824 363.376 137.824Z" fill="#00A3FF" fill-opacity="0.2"/>
<path d="M363.729 138.655C355.955 138.655 348.355 136.348 341.891 132.027C335.427 127.705 330.389 121.563 327.414 114.377C324.439 107.191 323.66 99.2837 325.177 91.655C326.694 84.0262 330.437 77.0188 335.935 71.5187C341.432 66.0187 348.436 62.2731 356.061 60.7557C363.686 59.2382 371.589 60.017 378.772 62.9936C385.954 65.9702 392.093 71.0109 396.412 77.4783C400.731 83.9456 403.037 91.5491 403.037 99.3273C403.037 104.492 402.02 109.606 400.045 114.377C398.069 119.149 395.174 123.484 391.524 127.136C387.874 130.788 383.541 133.685 378.772 135.661C374.003 137.637 368.891 138.655 363.729 138.655ZM363.729 61.8728C356.325 61.8728 349.087 64.0695 342.931 68.185C336.775 72.3006 331.977 78.1502 329.143 84.9941C326.31 91.8381 325.568 99.3689 327.013 106.634C328.457 113.9 332.023 120.574 337.258 125.812C342.494 131.05 349.164 134.617 356.426 136.062C363.688 137.507 371.215 136.766 378.055 133.931C384.896 131.096 390.742 126.295 394.856 120.136C398.969 113.977 401.165 106.735 401.165 99.3274C401.165 89.3938 397.221 79.8671 390.2 72.843C383.18 65.8189 373.658 61.8728 363.729 61.8728V61.8728Z" fill="#3F3D56"/>
<path d="M374.435 79.872C377.054 79.8798 379.562 80.9239 381.414 82.7764C383.265 84.6288 384.309 87.1389 384.317 89.7586V109.53C384.309 112.149 383.265 114.66 381.414 116.512C379.562 118.364 377.054 119.408 374.435 119.416H354.674C352.056 119.408 349.547 118.364 347.695 116.512C345.844 114.66 344.8 112.149 344.792 109.53V89.7586C344.8 87.1389 345.844 84.6288 347.695 82.7764C349.547 80.9239 352.056 79.8798 354.674 79.872H374.435ZM374.435 75.918H354.674C351.008 75.9286 347.496 77.3903 344.904 79.9836C342.312 82.5769 340.851 86.0911 340.84 89.7586V109.53C340.851 113.197 342.312 116.711 344.904 119.305C347.496 121.898 351.008 123.36 354.674 123.37H374.435C378.101 123.36 381.613 121.898 384.205 119.305C386.797 116.711 388.258 113.197 388.269 109.53V89.7586C388.258 86.0911 386.797 82.5769 384.205 79.9836C381.613 77.3903 378.101 75.9287 374.435 75.918Z" fill="#1652F0"/>
<path d="M377.399 89.7587C376.615 89.757 375.864 89.444 375.311 88.8885C374.757 88.333 374.447 87.5804 374.448 86.7961C374.449 86.0118 374.761 85.2598 375.315 84.7055C375.87 84.1512 376.622 83.8398 377.406 83.8398C378.19 83.8398 378.942 84.1512 379.496 84.7055C380.051 85.2598 380.363 86.0118 380.364 86.7961C380.365 87.5804 380.054 88.333 379.501 88.8885C378.947 89.444 378.196 89.757 377.412 89.7587C377.408 89.7587 377.404 89.7587 377.399 89.7587Z" fill="#1652F0"/>
<path d="M364.554 91.7352C366.118 91.7353 367.646 92.1991 368.946 93.0682C370.246 93.9373 371.259 95.1725 371.858 96.6177C372.456 98.0629 372.613 99.6531 372.308 101.187C372.003 102.722 371.25 104.131 370.144 105.237C369.039 106.343 367.63 107.096 366.097 107.401C364.563 107.707 362.974 107.55 361.529 106.951C360.085 106.353 358.85 105.339 357.982 104.038C357.113 102.738 356.649 101.209 356.649 99.6443C356.649 98.6057 356.854 97.5772 357.251 96.6176C357.648 95.6581 358.231 94.7862 358.965 94.0518C359.699 93.3173 360.57 92.7348 361.529 92.3373C362.488 91.9398 363.516 91.7352 364.554 91.7352ZM364.554 87.7813C362.209 87.7812 359.917 88.477 357.967 89.7805C356.017 91.084 354.497 92.9368 353.6 95.1045C352.702 97.2722 352.468 99.6574 352.925 101.959C353.383 104.26 354.512 106.374 356.17 108.033C357.828 109.692 359.941 110.822 362.241 111.279C364.541 111.737 366.925 111.502 369.092 110.604C371.258 109.707 373.11 108.186 374.413 106.235C375.716 104.284 376.412 101.991 376.412 99.6444C376.412 96.4981 375.162 93.4807 372.939 91.2559C370.715 89.0312 367.699 87.7813 364.554 87.7813V87.7813Z" fill="#1652F0"/>
<path d="M363.485 351.323C353.501 351.323 343.9 347.481 336.669 340.593C329.439 333.705 325.133 324.298 324.644 314.321C324.613 314.953 324.595 315.589 324.595 316.229C324.595 326.548 328.693 336.445 335.986 343.741C343.279 351.038 353.171 355.138 363.485 355.138C373.799 355.138 383.691 351.038 390.984 343.741C398.277 336.445 402.374 326.548 402.374 316.229C402.374 315.589 402.356 314.953 402.326 314.321C401.837 324.298 397.531 333.705 390.301 340.593C383.07 347.481 373.469 351.323 363.485 351.323Z" fill="#00A3FF" fill-opacity="0.2"/>
<path d="M363.422 351.645C355.648 351.645 348.048 349.338 341.584 345.017C335.12 340.696 330.082 334.554 327.107 327.367C324.132 320.181 323.353 312.274 324.87 304.645C326.387 297.016 330.13 290.009 335.628 284.509C341.125 279.009 348.129 275.263 355.754 273.746C363.379 272.228 371.282 273.007 378.465 275.984C385.647 278.96 391.786 284.001 396.105 290.468C400.425 296.936 402.73 304.539 402.73 312.318C402.73 322.748 398.589 332.751 391.217 340.126C383.845 347.501 373.847 351.645 363.422 351.645ZM363.422 274.863C356.018 274.863 348.78 277.06 342.624 281.175C336.468 285.291 331.67 291.14 328.836 297.984C326.003 304.828 325.261 312.359 326.706 319.625C328.15 326.89 331.716 333.564 336.951 338.802C342.187 344.04 348.857 347.607 356.119 349.052C363.381 350.498 370.908 349.756 377.748 346.921C384.589 344.086 390.436 339.286 394.549 333.126C398.663 326.967 400.858 319.725 400.858 312.318C400.858 307.399 399.89 302.529 398.009 297.984C396.127 293.44 393.37 289.311 389.893 285.833C386.417 282.355 382.29 279.596 377.748 277.714C373.207 275.832 368.339 274.863 363.422 274.863Z" fill="#3F3D56"/>
<path fill-rule="evenodd" clip-rule="evenodd" d="M389.119 312.472C389.118 307.559 387.71 302.749 385.062 298.612C382.413 294.475 378.636 291.183 374.176 289.127C369.716 287.071 364.761 286.337 359.897 287.011C355.033 287.685 350.464 289.739 346.731 292.93C342.997 296.122 340.256 300.317 338.831 305.018C337.407 309.72 337.359 314.731 338.692 319.46C340.026 324.188 342.686 328.435 346.357 331.698C350.029 334.96 354.557 337.102 359.407 337.87V319.906H352.881V312.472H359.407V306.807C359.407 300.365 363.245 296.803 369.113 296.803C371.041 296.83 372.964 296.998 374.866 297.306V303.633H371.625C368.434 303.633 367.436 305.614 367.436 307.65V312.473H374.562L373.424 319.907H367.436V337.872C373.481 336.914 378.986 333.83 382.961 329.174C386.935 324.517 389.119 318.595 389.119 312.472L389.119 312.472Z" fill="#1652F0"/>
<path d="M253.485 411.323C243.501 411.323 233.9 407.481 226.669 400.593C219.439 393.705 215.133 384.298 214.644 374.321C214.613 374.953 214.595 375.589 214.595 376.229C214.595 386.548 218.693 396.445 225.986 403.741C233.279 411.038 243.171 415.138 253.485 415.138C263.799 415.138 273.691 411.038 280.984 403.741C288.277 396.445 292.374 386.548 292.374 376.229C292.374 375.589 292.356 374.953 292.326 374.321C291.837 384.298 287.531 393.705 280.301 400.593C273.07 407.481 263.469 411.323 253.485 411.323Z" fill="#00A3FF" fill-opacity="0.2"/>
<path d="M253.422 411.645C245.648 411.645 238.048 409.338 231.584 405.017C225.12 400.696 220.082 394.554 217.107 387.367C214.132 380.181 213.353 372.274 214.87 364.645C216.387 357.016 220.13 350.009 225.628 344.509C231.125 339.009 238.129 335.263 245.754 333.746C253.379 332.228 261.282 333.007 268.465 335.984C275.647 338.96 281.786 344.001 286.105 350.468C290.425 356.936 292.73 364.539 292.73 372.318C292.73 382.748 288.589 392.751 281.217 400.126C273.845 407.501 263.847 411.645 253.422 411.645ZM253.422 334.863C246.018 334.863 238.78 337.06 232.624 341.175C226.468 345.291 221.67 351.14 218.836 357.984C216.003 364.828 215.261 372.359 216.706 379.625C218.15 386.89 221.716 393.564 226.951 398.802C232.187 404.04 238.857 407.607 246.119 409.052C253.381 410.498 260.908 409.756 267.748 406.921C274.589 404.086 280.436 399.286 284.549 393.126C288.663 386.967 290.858 379.725 290.858 372.318C290.858 367.399 289.89 362.529 288.009 357.984C286.127 353.44 283.37 349.311 279.893 345.833C276.417 342.355 272.29 339.596 267.748 337.714C263.207 335.832 258.339 334.863 253.422 334.863Z" fill="#3F3D56"/>
<g clip-path="url(#clip0_462_40558)">
<path d="M275.883 346.77H231.56C230.542 346.77 229.566 347.174 228.846 347.894C228.126 348.614 227.722 349.59 227.722 350.608V394.931C227.722 395.949 228.126 396.925 228.846 397.645C229.566 398.365 230.542 398.77 231.56 398.77H275.883C276.901 398.77 277.878 398.365 278.597 397.645C279.317 396.925 279.722 395.949 279.722 394.931V350.608C279.722 349.59 279.317 348.614 278.597 347.894C277.878 347.174 276.901 346.77 275.883 346.77ZM243.221 391.067H235.403V366.233H243.221V391.067ZM239.306 362.792C238.419 362.787 237.554 362.519 236.819 362.023C236.084 361.527 235.513 360.824 235.177 360.003C234.841 359.182 234.756 358.28 234.932 357.411C235.109 356.542 235.539 355.744 236.168 355.119C236.797 354.494 237.597 354.07 238.467 353.899C239.337 353.728 240.239 353.819 241.057 354.16C241.876 354.501 242.575 355.077 243.067 355.815C243.559 356.553 243.821 357.42 243.82 358.307C243.828 358.901 243.717 359.49 243.493 360.04C243.269 360.59 242.936 361.089 242.515 361.507C242.094 361.926 241.592 362.255 241.041 362.476C240.49 362.697 239.9 362.804 239.306 362.792ZM272.037 391.089H264.223V377.522C264.223 373.521 262.522 372.286 260.326 372.286C258.008 372.286 255.733 374.033 255.733 377.623V391.089H247.915V366.251H255.433V369.693H255.534C256.289 368.165 258.933 365.555 262.966 365.555C267.328 365.555 272.041 368.144 272.041 375.727L272.037 391.089Z" fill="#1652F0"/>
</g>
<defs>
<clipPath id="clip0_462_40558">
<rect x="227.722" y="346.77" width="52" height="52" rx="26" fill="white"/>
</clipPath>
</defs>
</svg>
